# xmcd
#
# Track frame offsets:
#	150
#	16248
#	34827
#	48851
#	63807
#	78259
#	94061
#	112073
#	126418
#	140022
#	154088
#	169307
#	181018
#	197018
#	213823
#
# Disc length: 3002 seconds
#
# Revision: 1
# Processed by: cddbd v1.5.2PL0 Copyright (c) Steve Scherf et al.
# Submitted via: audiograbber 1.80
#
DISCID=c50bb80f
DTITLE=Rustie Blue - Chip Chip
DYEAR=2004
DGENRE=Country
TTITLE0=Chip Chip (with Bill Anderson)
TTITLE1=Tomorrow Tonight
TTITLE2=Cloud Of Dust
TTITLE3=The Same Old Who
TTITLE4=The Devil May Care
TTITLE5=When I Remember You
TTITLE6=Before I Fall
TTITLE7=Oh Baby
TTITLE8=Two Left Feet
TTITLE9=Don't Come Cryin'
TTITLE10=Do Me A Favor
TTITLE11=Honky Tonkin' Diva
TTITLE12=Down To The Letter
TTITLE13=Smokey Mountain Queen (Dolly Parton Tribute)
TTITLE14=Satisfied
EXTD=
EXTT0=
EXTT1=
EXTT2=
EXTT3=
EXTT4=
EXTT5=
EXTT6=
EXTT7=
EXTT8=
EXTT9=
EXTT10=
EXTT11=
EXTT12=
EXTT13=
EXTT14=
PLAYORDER=
